<?xml version="1.0" encoding="UTF-8" standalone="no"?>
<svg
   xmlns:osb="http://www.openswatchbook.org/uri/2009/osb"
   xmlns:dc="http://purl.org/dc/elements/1.1/"
   xmlns:cc="http://creativecommons.org/ns#"
   xmlns:rdf="http://www.w3.org/1999/02/22-rdf-syntax-ns#"
   xmlns:svg="http://www.w3.org/2000/svg"
   xmlns="http://www.w3.org/2000/svg"
   xmlns:sodipodi="http://sodipodi.sourceforge.net/DTD/sodipodi-0.dtd"
   xmlns:inkscape="http://www.inkscape.org/namespaces/inkscape"
   version="1.1"
   viewBox="0 0 1200 1200"
   id="svg4"
   sodipodi:docname="info2.svg"
   inkscape:version="0.92.1 r15371">
  <metadata
     id="metadata10">
    <rdf:RDF>
      <cc:Work
         rdf:about="">
        <dc:format>image/svg+xml</dc:format>
        <dc:type
           rdf:resource="http://purl.org/dc/dcmitype/StillImage" />
        <dc:title></dc:title>
      </cc:Work>
    </rdf:RDF>
  </metadata>
  <defs
     id="defs8">
    <linearGradient
       id="linearGradient4491"
       osb:paint="gradient">
      <stop
         style="stop-color:#7d83ee;stop-opacity:1;"
         offset="0"
         id="stop4487" />
      <stop
         style="stop-color:#7d83ee;stop-opacity:0;"
         offset="1"
         id="stop4489" />
    </linearGradient>
  </defs>
  <sodipodi:namedview
     pagecolor="#ffffff"
     bordercolor="#666666"
     borderopacity="1"
     objecttolerance="10"
     gridtolerance="10"
     guidetolerance="10"
     inkscape:pageopacity="0"
     inkscape:pageshadow="2"
     inkscape:window-width="1360"
     inkscape:window-height="670"
     id="namedview6"
     showgrid="false"
     inkscape:zoom="0.19666667"
     inkscape:cx="-261.86441"
     inkscape:cy="600.00001"
     inkscape:window-x="13"
     inkscape:window-y="94"
     inkscape:window-maximized="0"
     inkscape:current-layer="svg4" />
  <path
     d="m1196.1 600.9c-0.3 324.7-262.4 590.1-590.3 589.9-325.7-0.2-589.6-263.1-589.5-590.2 0.1-327.5 265.1-589.5 590-589.6 325.6-0.1 589.8 264.3 589.8 589.9zm-488 129.2c0-72.7-0.1-145.3 0.1-218 0.1-27.5-9.7-50.8-30-68.9-32-28.6-69.2-34.6-109.1-20.5-38.1 13.5-63.6 50.1-63.4 91.5 0.8 144.8 0.4 289.6 0.2 434.4 0 81.8 70.1 95.6 103.6 95.5 50.4-0.2 99.9-40.8 98.9-99.1-1.3-71.6-0.3-143.3-0.3-214.9zm6.9-464.6c-0.1-60.4-48.3-108.5-108.8-108.5-60.6 0-109 48.5-108.9 109.1 0.1 59.9 49 108.7 109 108.7 60.4 0 108.7-48.6 108.7-109.3z"
     id="path2"
     style="fill:#2b0000;fill-opacity:1" />
</svg>
