<?xml version="1.0" encoding="UTF-8" standalone="no"?>
<svg
   xmlns:dc="http://purl.org/dc/elements/1.1/"
   xmlns:cc="http://creativecommons.org/ns#"
   xmlns:rdf="http://www.w3.org/1999/02/22-rdf-syntax-ns#"
   xmlns:svg="http://www.w3.org/2000/svg"
   xmlns="http://www.w3.org/2000/svg"
   xmlns:sodipodi="http://sodipodi.sourceforge.net/DTD/sodipodi-0.dtd"
   xmlns:inkscape="http://www.inkscape.org/namespaces/inkscape"
   viewBox="0 0 160.00023 91.296953"
   version="1.1"
   id="svg10"
   sodipodi:docname="student.svg"
   width="160.00023"
   height="91.296951"
   inkscape:version="0.92.1 r15371">
  <metadata
     id="metadata16">
    <rdf:RDF>
      <cc:Work
         rdf:about="">
        <dc:format>image/svg+xml</dc:format>
        <dc:type
           rdf:resource="http://purl.org/dc/dcmitype/StillImage" />
        <dc:title></dc:title>
      </cc:Work>
    </rdf:RDF>
  </metadata>
  <defs
     id="defs14" />
  <sodipodi:namedview
     pagecolor="#ffffff"
     bordercolor="#666666"
     borderopacity="1"
     objecttolerance="10"
     gridtolerance="10"
     guidetolerance="10"
     inkscape:pageopacity="0"
     inkscape:pageshadow="2"
     inkscape:window-width="918"
     inkscape:window-height="543"
     id="namedview12"
     showgrid="false"
     inkscape:zoom="2.9415642"
     inkscape:cx="120.25504"
     inkscape:cy="61.13018"
     inkscape:window-x="0"
     inkscape:window-y="0"
     inkscape:window-maximized="0"
     inkscape:current-layer="svg10" />
  <path
     d="m 57.48489,76.08861 -0.65189,-18.558 -3.1285,-2.75 -3.1285,-2.75 h -3.8356 l 0.48855,-4.3344 0.48855,-4.3344 -4.1085,-2.5103 C 41.3493,39.47081 33.43,35.29391 26.011,31.56941 L 12.522,24.79761 6.6388,24.26414 0.75560004,23.73067 3.6278,22.54657 6.5,21.36247 3.25,19.67087 C 1.4625,18.74049 0,17.75727 0,17.48587 c 0,-0.2714 1.2375,-0.22914 2.75,0.0938 L 5.5,18.16685 3.5589,16.59875 C 2.4913,15.73629 1.2538,15.03065 0.80890004,15.03065 0.36400004,15.03065 3e-5,14.53251 3e-5,13.92365 v -1.107 l 1.75,0.70293 c 0.9625,0.3866 2.425,0.92664 3.25,1.2001 l 1.5,0.49715 -2.5,-2.0708 -2.5,-2.0708 1.5,-0.0185 c 0.825,-0.0102 2.9734,0.87982 4.7742,1.9778 1.8007995,1.09798 3.5408,1.9963 3.8666,1.9963 h 0.5924 l -0.48246,-2.5239 -0.48247,-2.5239 0.71857,-0.44411 0.71858,-0.4441 2.7942,5.5226 2.7942,5.5226 3.6088,1.8411 c 1.9848,1.0126 5.6287,2.385 8.0975,3.0498 2.4688,0.6648 6.2913,2.1142 8.4944,3.2209 2.2031,1.1067 4.6806,2.586 5.5056,3.2874 0.825,0.70139 4.65,2.533 8.5,4.0703 l 7,2.795 3.674,-0.13081 3.674,-0.13081 1.1984,1.444 1.1984,1.444 h 3.7551 V 39.459 c 0,-0.86456 -1.187,-3.5974 -2.6378,-6.073 l -2.6378,-4.501 0.61303,-6.5648 0.61302,-6.5648 1.5444,-2.357 1.5444,-2.357 L 75.6788,9.5207 79.3183,8 l 3.1193,0.58519 3.1193,0.58518 2.4707,3.6057 2.4707,3.6057 9e-4,7.1716 9e-4,7.1716 -1.4569,2.9029 c -0.80128,1.5966 -2.111,3.6932 -2.9105,4.6591 l -1.4537,1.7561 0.6544,0.65441 0.65441,0.6544 1.8349,-1.6605 1.8349,-1.6605 h 4.1285 l 0.5362,1.3973 0.5362,1.3973 7.1579,-1.3639 7.1579,-1.3639 5.3625,-2.455 5.3625,-2.455 7.3004,-1.6608 c 4.0152,-0.91346 9.1186,-2.3 11.341,-3.0811 l 4.0405,-1.4202 3.7593,-4.4973 c 2.0676,-2.4735 4.2027,-4.4973 4.7447,-4.4973 h 0.98541 l -1.0352,1.9343 c -0.56935,1.0638 -1.0352,2.4254 -1.0352,3.0257 v 1.0914 l 2.9503,-1.5257 c 1.6227,-0.83912 3.5352,-1.5107 4.25,-1.4924 l 1.2997,0.0333 -2.5,2.0927 -2.5,2.0927 3.25,-0.70544 3.25,-0.70543 v 0.54752 c 0,0.30113 -1.2375,1.2189 -2.75,2.0394 l -2.75,1.4919 2,0.15846 c 1.1,0.0872 2.3375,0.10517 2.75,0.04 0.4125,-0.0652 0.75,0.33159 0.75,0.88159 v 1 l -3.25,0.0222 -3.25,0.0222 2.3896,1.8374 2.3896,1.8374 -6.8896,-0.084 -6.8896,-0.084 -14.154,5.1392 c -7.7846,2.8266 -15.977,6.1884 -18.205,7.4707 l -4.0511,2.3315 -0.29499,3.0036 -0.29498,3.0037 -3.2473,0.31316 -3.2473,0.31315 -2.533,3.3209 -2.5329,3.3209 1.1103,4.866 1.1103,4.866 -0.26191,7.99999 c 0.385278,25.00995 -8.882621,20.01498 -26.791004,17.88458 -21.533267,2.6594 29.554354,-14.86696 13.257921,-0.91441 v 0 C 118.58048,83.67634 48.989254,121.00613 57.48489,76.08861 Z"
     id="path6"
     inkscape:connector-curvature="0"
     sodipodi:nodetypes="ccccccccccccccsscccsscccccccssccccccccssccccccccscccccccccccccccccccccccccccccccssccsccccccccsccccsccccccccccccccccccccccc"
     style="fill:#de8787" />
</svg>
